<?xml version="1.0" encoding="utf-8"?>
<!-- Generator: Adobe Illustrator 23.1.0, SVG Export Plug-In . SVG Version: 6.00 Build 0)  -->
<svg version="1.1" id="MODELSKETCH_x5F_VISIBLE" xmlns="http://www.w3.org/2000/svg" xmlns:xlink="http://www.w3.org/1999/xlink"
	 x="0px" y="0px" viewBox="0 0 1366 768" style="enable-background:new 0 0 1366 768;" xml:space="preserve">
<style type="text/css">
	.st0{fill:none;stroke:#000000;stroke-width:0.7087;stroke-linecap:round;stroke-linejoin:round;stroke-miterlimit:10;}
</style>
<g id="LINE">
	<line class="st0" x1="671.1" y1="393" x2="783.1" y2="393"/>
</g>
<g id="LINE_1_">
	<line class="st0" x1="661.9" y1="403.1" x2="666.9" y2="395.3"/>
</g>
<g id="LINE_2_">
	<line class="st0" x1="618.5" y1="377.6" x2="513.9" y2="377.6"/>
</g>
<g id="ARC">
	<path class="st0" d="M623.5,394.6c-0.3,11,8.4,20.2,19.4,20.5c8.2,0.2,15.7-4.6,18.9-12.1"/>
</g>
<g id="LINE_3_">
	<line class="st0" x1="649.6" y1="264.4" x2="649.6" y2="324.4"/>
</g>
<g id="LINE_5_">
	<line class="st0" x1="589.6" y1="324.4" x2="649.6" y2="324.4"/>
</g>
<g id="LINE_6_">
	<line class="st0" x1="589.6" y1="264.4" x2="649.6" y2="264.4"/>
</g>
<g id="LINE_7_">
	<line class="st0" x1="562.1" y1="264.4" x2="507.1" y2="264.4"/>
</g>
<g id="LINE_8_">
	<line class="st0" x1="772.1" y1="264.4" x2="672.1" y2="264.4"/>
</g>
<g id="LINE_9_">
	<line class="st0" x1="562.1" y1="258.4" x2="562.1" y2="264.4"/>
</g>
<g id="LINE_10_">
	<line class="st0" x1="672.1" y1="258.4" x2="562.1" y2="258.4"/>
</g>
<g id="ARC_1_">
	<path class="st0" d="M623.5,382.6c0-2.8-2.2-5-5-5"/>
</g>
<g id="LINE_11_">
	<line class="st0" x1="672.1" y1="264.4" x2="672.1" y2="258.4"/>
</g>
<g id="LINE_12_">
	<line class="st0" x1="623.5" y1="395.8" x2="623.5" y2="382.6"/>
</g>
<g id="LINE_13_">
	<line class="st0" x1="772.1" y1="258.4" x2="772.1" y2="264.4"/>
</g>
<g id="LINE_14_">
	<line class="st0" x1="553.9" y1="502.6" x2="553.9" y2="508.6"/>
</g>
<g id="LINE_15_">
	<line class="st0" x1="687.9" y1="374" x2="582.9" y2="374"/>
</g>
<g id="LINE_16_">
	<line class="st0" x1="507.1" y1="301.3" x2="507.1" y2="264.4"/>
</g>
<g id="LINE_17_">
	<line class="st0" x1="593.9" y1="508.6" x2="593.9" y2="502.6"/>
</g>
<g id="LINE_18_">
	<line class="st0" x1="513.9" y1="462.6" x2="513.9" y2="502.6"/>
</g>
<g id="LINE_19_">
	<line class="st0" x1="582.9" y1="374" x2="507.1" y2="301.3"/>
</g>
<g id="LINE_20_">
	<line class="st0" x1="553.9" y1="508.6" x2="593.9" y2="508.6"/>
</g>
<g id="LINE_21_">
	<line class="st0" x1="507.9" y1="422.6" x2="513.9" y2="422.6"/>
</g>
<g id="LINE_22_">
	<line class="st0" x1="507.9" y1="462.6" x2="507.9" y2="422.6"/>
</g>
<g id="LINE_23_">
	<line class="st0" x1="513.9" y1="462.6" x2="507.9" y2="462.6"/>
</g>
<g id="LINE_24_">
	<line class="st0" x1="858.9" y1="465.7" x2="858.9" y2="502.6"/>
</g>
<g id="LINE_25_">
	<line class="st0" x1="782.1" y1="389.4" x2="852.1" y2="389.4"/>
</g>
<g id="CIRCLE">
	<path class="st0" d="M670,399.4c0-1.1,0.9-2,2-2s2,0.9,2,2c0,1.1-0.9,2-2,2S670,400.5,670,399.4L670,399.4z"/>
</g>
<g id="LINE_26_">
	<line class="st0" x1="783.1" y1="393" x2="858.9" y2="465.7"/>
</g>
<g id="LINE_27_">
	<line class="st0" x1="513.9" y1="502.6" x2="553.9" y2="502.6"/>
</g>
<g id="ARC_2_">
	<path class="st0" d="M671.1,393c-1.7,0-3.3,0.9-4.2,2.3"/>
</g>
<g id="CIRCLE_1_">
	<path class="st0" d="M767.5,498.1c0-1.7,1.3-3,3-3s3,1.3,3,3s-1.3,3-3,3S767.5,499.7,767.5,498.1L767.5,498.1z"/>
</g>
<g id="LINE_28_">
	<line class="st0" x1="513.9" y1="377.6" x2="513.9" y2="422.6"/>
</g>
<g id="CIRCLE_2_">
	<path class="st0" d="M615.4,382.8c0-1.1,0.9-2,2-2s2,0.9,2,2c0,1.1-0.9,2-2,2S615.4,383.9,615.4,382.8L615.4,382.8z"/>
</g>
<g id="LINE_29_">
	<line class="st0" x1="858.1" y1="344.4" x2="852.1" y2="344.4"/>
</g>
<g id="LINE_30_">
	<line class="st0" x1="852.1" y1="389.4" x2="852.1" y2="344.4"/>
</g>
<g id="LINE_31_">
	<line class="st0" x1="703.9" y1="502.6" x2="703.9" y2="508.6"/>
</g>
<g id="LINE_32_">
	<line class="st0" x1="852.1" y1="264.4" x2="812.1" y2="264.4"/>
</g>
<g id="LINE_33_">
	<line class="st0" x1="703.9" y1="508.6" x2="778.9" y2="508.6"/>
</g>
<g id="ARC_3_">
	<path class="st0" d="M767.1,373.8c0.8-19.3-14.3-35.6-33.6-36.4c-17.3-0.7-32.6,11.4-35.8,28.5"/>
</g>
<g id="LINE_34_">
	<line class="st0" x1="778.9" y1="508.6" x2="778.9" y2="502.6"/>
</g>
<g id="ARC_4_">
	<path class="st0" d="M687.9,374c4.8,0,8.9-3.4,9.8-8.1"/>
</g>
<g id="LINE_35_">
	<line class="st0" x1="778.9" y1="502.6" x2="858.9" y2="502.6"/>
</g>
<g id="ARC_5_">
	<path class="st0" d="M767.1,373.8c-0.3,8.3,6.1,15.3,14.4,15.6c0.2,0,0.4,0,0.6,0"/>
</g>
<g id="CIRCLE_3_">
	<path class="st0" d="M767.7,450.9c0-1.7,1.3-3,3-3s3,1.3,3,3c0,1.7-1.3,3-3,3S767.7,452.6,767.7,450.9L767.7,450.9z"/>
</g>
<g id="LINE_36_">
	<line class="st0" x1="593.9" y1="502.6" x2="703.9" y2="502.6"/>
</g>
<g id="LINE_37_">
	<line class="st0" x1="852.1" y1="304.4" x2="858.1" y2="304.4"/>
</g>
<g id="LINE_38_">
	<line class="st0" x1="858.1" y1="304.4" x2="858.1" y2="344.4"/>
</g>
<g id="CIRCLE_4_">
	<path class="st0" d="M720.5,498.1c0-1.7,1.3-3,3-3s3,1.3,3,3s-1.3,3-3,3S720.5,499.7,720.5,498.1L720.5,498.1z"/>
</g>
<g id="LINE_39_">
	<line class="st0" x1="852.1" y1="304.4" x2="852.1" y2="264.4"/>
</g>
<g id="LINE_40_">
	<line class="st0" x1="812.1" y1="264.4" x2="812.1" y2="258.4"/>
</g>
<g id="LINE_41_">
	<line class="st0" x1="812.1" y1="258.4" x2="772.1" y2="258.4"/>
</g>
<g id="CIRCLE_5_">
	<path class="st0" d="M720.4,450.9c0-1.7,1.3-3,3-3c1.7,0,3,1.3,3,3c0,1.7-1.3,3-3,3C721.7,453.9,720.4,452.6,720.4,450.9
		L720.4,450.9z"/>
</g>
<line class="st0" x1="589.6" y1="264.4" x2="589.6" y2="278.8"/>
<line class="st0" x1="589.6" y1="324.4" x2="589.6" y2="299.2"/>
<line class="st0" x1="589.6" y1="278.8" x2="582" y2="278.8"/>
<line class="st0" x1="589.6" y1="299.2" x2="582" y2="299.2"/>
<line class="st0" x1="582" y1="278.8" x2="582" y2="299.2"/>
</svg>
