<?xml version="1.0" encoding="UTF-8" standalone="no"?>
<!-- Created with Inkscape (http://www.inkscape.org/) -->

<svg
   xmlns:dc="http://purl.org/dc/elements/1.1/"
   xmlns:cc="http://creativecommons.org/ns#"
   xmlns:rdf="http://www.w3.org/1999/02/22-rdf-syntax-ns#"
   xmlns:svg="http://www.w3.org/2000/svg"
   xmlns="http://www.w3.org/2000/svg"
   xmlns:sodipodi="http://sodipodi.sourceforge.net/DTD/sodipodi-0.dtd"
   xmlns:inkscape="http://www.inkscape.org/namespaces/inkscape"
   width="297mm"
   height="420mm"
   viewBox="0 0 297 420"
   version="1.1"
   id="svg8"
   inkscape:version="0.92.4 (fd57863, 2020-04-02)"
   sodipodi:docname="3mmWhite-FaceplateLabelled.svg">
  <defs
     id="defs2">
    <marker
       style="overflow:visible"
       refY="0.0"
       refX="0.0"
       orient="auto"
       id="DistanceX">
      <path
         id="path836"
         style="stroke:#000000; stroke-width:0.5"
         d="M 3,-3 L -3,3 M 0,-5 L  0,5" />
    </marker>
    <pattern
       y="0"
       x="0"
       width="8"
       patternUnits="userSpaceOnUse"
       id="Hatch"
       height="8">
      <path
         id="path839"
         stroke-width="0.25"
         stroke="#000000"
         linecap="square"
         d="M8 4 l-4,4" />
      <path
         id="path841"
         stroke-width="0.25"
         stroke="#000000"
         linecap="square"
         d="M6 2 l-4,4" />
      <path
         id="path843"
         stroke-width="0.25"
         stroke="#000000"
         linecap="square"
         d="M4 0 l-4,4" />
    </pattern>
    <symbol
       id="*MODEL_SPACE" />
    <symbol
       id="*PAPER_SPACE" />
  </defs>
  <sodipodi:namedview
     id="base"
     pagecolor="#ffffff"
     bordercolor="#666666"
     borderopacity="1.0"
     inkscape:pageopacity="0.0"
     inkscape:pageshadow="2"
     inkscape:zoom="3.959798"
     inkscape:cx="852.61201"
     inkscape:cy="432.44383"
     inkscape:document-units="mm"
     inkscape:current-layer="layer1"
     showgrid="false"
     inkscape:window-width="1920"
     inkscape:window-height="1052"
     inkscape:window-x="1366"
     inkscape:window-y="0"
     inkscape:window-maximized="1" />
  <metadata
     id="metadata5">
    <rdf:RDF>
      <cc:Work
         rdf:about="">
        <dc:format>image/svg+xml</dc:format>
        <dc:type
           rdf:resource="http://purl.org/dc/dcmitype/StillImage" />
        <dc:title />
      </cc:Work>
    </rdf:RDF>
  </metadata>
  <g
     inkscape:label="Layer 1"
     inkscape:groupmode="layer"
     id="layer1"
     transform="translate(0,123)">
    <g
       inkscape:label="0"
       id="g850"
       transform="matrix(0.26458333,0,0,0.26458333,150.5726,-67.929437)" />
    <g
       inkscape:label="SECTION_CUTTING_LINE"
       id="g852"
       transform="matrix(0.26458333,0,0,0.26458333,150.5726,-67.929437)" />
    <g
       inkscape:label="DETAIL_VIEW_BORDER"
       id="g854"
       transform="matrix(0.26458333,0,0,0.26458333,150.5726,-67.929437)" />
    <g
       inkscape:label="DETAIL_VIEW_PARENT_BORDER"
       id="g856"
       transform="matrix(0.26458333,0,0,0.26458333,150.5726,-67.929437)" />
    <g
       inkscape:label="TEXT"
       id="g858"
       transform="matrix(0.26458333,0,0,0.26458333,150.5726,-67.929437)" />
    <g
       inkscape:label="SKETCHED_GEOMETRY"
       id="g860"
       transform="matrix(0.26458333,0,0,0.26458333,150.5726,-67.929437)" />
    <g
       inkscape:label="VIRTUAL_SHARPS"
       id="g862"
       transform="matrix(0.26458333,0,0,0.26458333,150.5726,-67.929437)" />
    <g
       inkscape:label="CENTERLINES"
       id="g864"
       transform="matrix(0.26458333,0,0,0.26458333,150.5726,-67.929437)" />
    <g
       inkscape:label="CENTERMARKS"
       id="g866"
       transform="matrix(0.26458333,0,0,0.26458333,150.5726,-67.929437)" />
    <g
       inkscape:label="TABLES"
       id="g868"
       transform="matrix(0.26458333,0,0,0.26458333,150.5726,-67.929437)" />
    <g
       inkscape:label="IMAGES"
       id="g870"
       transform="matrix(0.26458333,0,0,0.26458333,150.5726,-67.929437)" />
    <g
       inkscape:label="ANNOTATION_LINES"
       id="g872"
       transform="matrix(0.26458333,0,0,0.26458333,150.5726,-67.929437)" />
    <g
       inkscape:label="ANNOTATION_TEXT"
       id="g874"
       transform="matrix(0.26458333,0,0,0.26458333,150.5726,-67.929437)" />
    <g
       inkscape:label="SIDE_THREAD_SYMBOLS"
       id="g876"
       transform="matrix(0.26458333,0,0,0.26458333,150.5726,-67.929437)" />
    <g
       inkscape:label="SIDE_THREAD_SYMBOLS_HIDDEN"
       id="g878"
       transform="matrix(0.26458333,0,0,0.26458333,150.5726,-67.929437)" />
    <g
       inkscape:label="SURFACE_THREAD_SYMBOLS"
       id="g880"
       transform="matrix(0.26458333,0,0,0.26458333,150.5726,-67.929437)" />
    <g
       inkscape:label="SURFACE_THREAD_SYMBOLS_ON_"
       id="g882"
       transform="matrix(0.26458333,0,0,0.26458333,150.5726,-67.929437)" />
    <g
       inkscape:label="SURFACE_THREAD_SYMBOLS_HID"
       id="g884"
       transform="matrix(0.26458333,0,0,0.26458333,150.5726,-67.929437)" />
    <g
       inkscape:label="BLIND_THREAD_SYMBOLS"
       id="g886"
       transform="matrix(0.26458333,0,0,0.26458333,150.5726,-67.929437)" />
    <g
       inkscape:label="BLIND_THREAD_SYMBOLS_HIDDE"
       id="g888"
       transform="matrix(0.26458333,0,0,0.26458333,150.5726,-67.929437)" />
    <g
       inkscape:label="EXPLODE_LINES"
       id="g890"
       transform="matrix(0.26458333,0,0,0.26458333,150.5726,-67.929437)" />
    <g
       inkscape:label="BREAK_LINES"
       id="g892"
       transform="matrix(0.26458333,0,0,0.26458333,150.5726,-67.929437)" />
    <g
       inkscape:label="SHEETMETAL_BEND_LINES_UP"
       id="g894"
       transform="matrix(0.26458333,0,0,0.26458333,150.5726,-67.929437)" />
    <g
       inkscape:label="SHEETMETAL_BEND_LINES_DOWN"
       id="g896"
       transform="matrix(0.26458333,0,0,0.26458333,150.5726,-67.929437)" />
    <g
       inkscape:label="SHEETMETAL_BEND_TANGENT_LI"
       id="g898"
       transform="matrix(0.26458333,0,0,0.26458333,150.5726,-67.929437)" />
    <g
       inkscape:label="SHEETMETAL_CUT_LINES"
       id="g900"
       transform="matrix(0.26458333,0,0,0.26458333,150.5726,-67.929437)" />
    <g
       inkscape:label="HIDDEN"
       id="g902"
       transform="matrix(0.26458333,0,0,0.26458333,150.5726,-67.929437)" />
    <g
       inkscape:label="VISIBLE"
       id="g904"
       transform="matrix(0.26458333,0,0,0.26458333,150.5726,-67.929437)" />
    <path
       id="path906"
       style="fill:none;stroke:#000000;stroke-width:0.26458332"
       d="m 134.91072,245.17025 a 3.5,3.5 0 1 0 -7,0 3.5000001,3.5000001 0 1 0 7,0 z"
       inkscape:connector-curvature="0" />
    <path
       id="path908"
       style="fill:none;stroke:#000000;stroke-width:0.26458332"
       d="m 99.910718,245.17025 a 3.4999998,3.4999998 0 1 0 -6.999999,0 3.5000001,3.5000001 0 1 0 6.999999,0 z"
       inkscape:connector-curvature="0" />
    <path
       id="path910"
       style="fill:none;stroke:#000000;stroke-width:0.26458332"
       d="m 38.41072,233.17023 h 218"
       inkscape:connector-curvature="0" />
    <path
       id="path912"
       style="fill:none;stroke:#000000;stroke-width:0.26458332"
       d="m 38.41072,270.17025 h 218"
       inkscape:connector-curvature="0" />
    <path
       id="path914"
       style="fill:none;stroke:#000000;stroke-width:0.26458332"
       d="m 191.11371,175.44642 a 3.2500001,3.2500001 0 1 0 -6.5,0 3.2500001,3.2500001 0 1 0 6.5,0 z"
       inkscape:connector-curvature="0" />
    <path
       id="path916"
       style="fill:none;stroke:#000000;stroke-width:0.26458332"
       d="m 64.91072,245.17025 a 3.500001,3.500001 0 1 0 -7.000002,0 3.500001,3.500001 0 1 0 7.000002,0 z"
       inkscape:connector-curvature="0" />
    <path
       id="path918"
       style="fill:none;stroke:#000000;stroke-width:0.26458332"
       d="m 179.91072,145.74642 a 5,5 0 0 0 5,-5"
       inkscape:connector-curvature="0" />
    <path
       id="path920"
       style="fill:none;stroke:#000000;stroke-width:0.26458332"
       d="m 48.705983,167.24642 v 39.99999"
       inkscape:connector-curvature="0" />
    <path
       id="path922"
       style="fill:none;stroke:#000000;stroke-width:0.26458332"
       d="m 109.91072,140.74642 a 5,5 0 0 0 5,5"
       inkscape:connector-curvature="0" />
    <path
       id="path924"
       style="fill:none;stroke:#000000;stroke-width:0.26458332"
       d="M 48.705983,207.24641 H 146.70598"
       inkscape:connector-curvature="0" />
    <path
       id="path926"
       style="fill:none;stroke:#000000;stroke-width:0.26458332"
       d="m 199.91072,122.74642 a 15,15 0 0 0 -15,15"
       inkscape:connector-curvature="0" />
    <path
       id="path928"
       style="fill:none;stroke:#000000;stroke-width:0.26458332"
       d="M 48.705983,167.24642 H 146.70598"
       inkscape:connector-curvature="0" />
    <path
       id="path930"
       style="fill:none;stroke:#000000;stroke-width:0.26458332"
       d="m 109.91072,137.74642 a 15,15 0 0 0 -15.000002,-15"
       inkscape:connector-curvature="0" />
    <path
       id="path932"
       style="fill:none;stroke:#000000;stroke-width:0.26458332"
       d="m 145.80598,215.74641 a 1.6000001,1.6000001 0 1 0 -3.2,0 1.6000001,1.6000001 0 1 0 3.2,0 z"
       inkscape:connector-curvature="0" />
    <path
       id="path934"
       style="fill:none;stroke:#000000;stroke-width:0.26458332"
       d="M 94.910718,122.74642 H 38.41072"
       inkscape:connector-curvature="0" />
    <path
       id="path936"
       style="fill:none;stroke:#000000;stroke-width:0.26458332"
       d="m 52.805985,215.74641 a 1.6000002,1.6000002 0 1 0 -3.2,0 1.6000002,1.6000002 0 1 0 3.2,0 z"
       inkscape:connector-curvature="0" />
    <path
       id="path938"
       style="fill:none;stroke:#000000;stroke-width:0.26458332"
       d="m 146.70598,167.24642 v 39.99999"
       inkscape:connector-curvature="0" />
    <path
       id="path940"
       style="fill:none;stroke:#000000;stroke-width:0.26458332"
       d="m 208.36371,200.74642 a 6,6 0 1 0 -12,0 6,6 0 1 0 12,0 z"
       inkscape:connector-curvature="0" />
    <path
       id="path942"
       style="fill:none;stroke:#000000;stroke-width:0.26458332"
       d="M 256.41072,270.17025 V 233.17023"
       inkscape:connector-curvature="0" />
    <path
       id="path944"
       style="fill:none;stroke:#000000;stroke-width:0.26458332"
       d="m 237.36371,200.74642 a 6,6 0 1 0 -12,0 6,6 0 1 0 12,0 z"
       inkscape:connector-curvature="0" />
    <path
       id="path946"
       style="fill:none;stroke:#000000;stroke-width:0.26458332"
       d="m 256.41072,122.74642 h -56.5"
       inkscape:connector-curvature="0" />
    <path
       id="path948"
       style="fill:none;stroke:#000000;stroke-width:0.26458332"
       d="m 237.36371,175.44642 a 6,6 0 1 0 -12,0 6,6 0 1 0 12,0 z"
       inkscape:connector-curvature="0" />
    <path
       id="path950"
       style="fill:none;stroke:#000000;stroke-width:0.26458332"
       d="M 38.41072,270.17025 V 233.17023"
       inkscape:connector-curvature="0" />
    <path
       id="path952"
       style="fill:none;stroke:#000000;stroke-width:0.26458332"
       d="m 176.61371,175.44642 a 3.2500001,3.2500001 0 1 0 -6.5,0 3.2500001,3.2500001 0 1 0 6.5,0 z"
       inkscape:connector-curvature="0" />
    <path
       id="path954"
       style="fill:none;stroke:#000000;stroke-width:0.2346781"
       d="m 219.36408,175.29954 a 2.882663,2.8826621 0 1 0 -5.76532,0 2.882663,2.8826621 0 1 0 5.76532,0 z"
       inkscape:connector-curvature="0" />
    <path
       id="path958"
       style="fill:none;stroke:#000000;stroke-width:0.26458332"
       d="m 256.41072,227.74643 h -218"
       inkscape:connector-curvature="0" />
    <path
       id="path960"
       style="fill:none;stroke:#000000;stroke-width:0.26458332"
       d="M 38.41072,122.74642 V 227.74643"
       inkscape:connector-curvature="0" />
    <path
       id="path962"
       style="fill:none;stroke:#000000;stroke-width:0.26458332"
       d="m 114.91072,145.74642 h 65"
       inkscape:connector-curvature="0" />
    <path
       id="path964"
       style="fill:none;stroke:#000000;stroke-width:0.26458332"
       d="m 52.805985,159.74642 a 1.6000002,1.6000002 0 1 0 -3.2,0 1.6000002,1.6000002 0 1 0 3.2,0 z"
       inkscape:connector-curvature="0" />
    <path
       id="path966"
       style="fill:none;stroke:#000000;stroke-width:0.26458332"
       d="m 109.91072,140.74642 v -3"
       inkscape:connector-curvature="0" />
    <path
       id="path968"
       style="fill:none;stroke:#000000;stroke-width:0.26458332"
       d="M 256.41072,122.74642 V 227.74643"
       inkscape:connector-curvature="0" />
    <path
       id="path970"
       style="fill:none;stroke:#000000;stroke-width:0.26458332"
       d="m 145.80598,159.74642 a 1.6000001,1.6000001 0 1 0 -3.2,0 1.6000001,1.6000001 0 1 0 3.2,0 z"
       inkscape:connector-curvature="0" />
    <path
       id="path972"
       style="fill:none;stroke:#000000;stroke-width:0.26458332"
       d="m 184.91072,140.74642 v -3"
       inkscape:connector-curvature="0" />
    <g
       inkscape:label="MODELSKETCH_CONSTRUCTION"
       id="g976"
       transform="matrix(0.26458333,0,0,0.26458333,150.5726,-67.929437)" />
    <g
       inkscape:label="HIDDEN_BASE_VIEW"
       id="g978"
       transform="matrix(0.26458333,0,0,0.26458333,150.5726,-67.929437)" />
    <g
       inkscape:label="TANGENT_LINES"
       id="g980"
       transform="matrix(0.26458333,0,0,0.26458333,150.5726,-67.929437)" />
    <g
       inkscape:label="TANGENT_HIDDEN"
       id="g982"
       transform="matrix(0.26458333,0,0,0.26458333,150.5726,-67.929437)" />
    <g
       inkscape:label="INVISIBLE_LINES"
       id="g984"
       transform="matrix(0.26458333,0,0,0.26458333,150.5726,-67.929437)" />
    <g
       inkscape:label="VIEW_HATCHES"
       id="g986"
       transform="matrix(0.26458333,0,0,0.26458333,150.5726,-67.929437)" />
    <g
       inkscape:label="SECTION_JOG_LINES"
       id="g988"
       transform="matrix(0.26458333,0,0,0.26458333,150.5726,-67.929437)" />
    <text
       xml:space="preserve"
       style="font-style:normal;font-weight:normal;font-size:10.58333397px;line-height:1.25;font-family:sans-serif;letter-spacing:0px;word-spacing:0px;writing-mode:lr-tb;fill:#ff0000;fill-opacity:1;stroke:none;stroke-width:0.26458332;"
       x="54.676868"
       y="219.2209"
       id="text1084"><tspan
         sodipodi:role="line"
         id="tspan1082"
         x="54.676868"
         y="219.2209"
         style="font-size:10.58333397px;stroke-width:0.26458332;fill:#ff0000;">VT     BPM     I/E</tspan></text>
    <text
       xml:space="preserve"
       style="font-style:normal;font-weight:normal;font-size:7.76111126px;line-height:1.25;font-family:sans-serif;letter-spacing:0px;word-spacing:0px;writing-mode:lr-tb;fill:#ff0000;fill-opacity:1;stroke:none;stroke-width:0.26458332"
       x="160.36171"
       y="189.81956"
       id="text1088"><tspan
         sodipodi:role="line"
         id="tspan1086"
         x="160.36171"
         y="189.81956"
         style="fill:#ff0000;stroke-width:0.26458332">ON/OFF            START</tspan></text>
    <text
       xml:space="preserve"
       style="font-style:normal;font-weight:normal;font-size:7.76111126px;line-height:1.25;font-family:sans-serif;letter-spacing:0px;word-spacing:0px;writing-mode:lr-tb;fill:#ff0000;fill-opacity:1;stroke:none;stroke-width:0.26458332"
       x="186.18034"
       y="215.07906"
       id="text1088-3"><tspan
         sodipodi:role="line"
         id="tspan1086-6"
         x="186.18034"
         y="215.07906"
         style="fill:#ff0000;stroke-width:0.26458332">CONFIG    OK</tspan></text>
  </g>
</svg>
