<?xml version="1.0" encoding="utf-8"?>
<!-- Generator: Adobe Illustrator 23.1.0, SVG Export Plug-In . SVG Version: 6.00 Build 0)  -->
<svg version="1.1" id="MODELSKETCH_x5F_VISIBLE" xmlns="http://www.w3.org/2000/svg" xmlns:xlink="http://www.w3.org/1999/xlink"
	 x="0px" y="0px" viewBox="0 0 1366 768" style="enable-background:new 0 0 1366 768;" xml:space="preserve">
<style type="text/css">
	.st0{fill:none;stroke:#000000;stroke-width:0.7087;stroke-linecap:round;stroke-linejoin:round;stroke-miterlimit:10;}
</style>
<g id="LINE">
	<line class="st0" x1="536.6" y1="410.3" x2="541.1" y2="410.3"/>
</g>
<g id="LINE_1_">
	<line class="st0" x1="535.6" y1="401.3" x2="535.6" y2="409.3"/>
</g>
<g id="LINE_2_">
	<line class="st0" x1="541.1" y1="400.3" x2="536.6" y2="400.3"/>
</g>
<g id="LINE_3_">
	<line class="st0" x1="536.6" y1="390.3" x2="541.1" y2="390.3"/>
</g>
<g id="LINE_4_">
	<line class="st0" x1="535.6" y1="381.3" x2="535.6" y2="389.3"/>
</g>
<g id="LINE_5_">
	<line class="st0" x1="541.1" y1="380.3" x2="536.6" y2="380.3"/>
</g>
<g id="LINE_6_">
	<line class="st0" x1="541.1" y1="400.3" x2="541.1" y2="390.3"/>
</g>
<g id="LINE_7_">
	<line class="st0" x1="581.1" y1="400.3" x2="581.1" y2="390.3"/>
</g>
<g id="ARC">
	<path class="st0" d="M580.1,416.8c0.6,0,1-0.4,1-1"/>
</g>
<g id="LINE_8_">
	<line class="st0" x1="581.1" y1="415.8" x2="581.1" y2="410.3"/>
</g>
<g id="ARC_1_">
	<path class="st0" d="M541.1,415.8c0,0.6,0.4,1,1,1"/>
</g>
<g id="LINE_9_">
	<line class="st0" x1="541.1" y1="410.3" x2="541.1" y2="415.8"/>
</g>
<g id="LINE_11_">
	<line class="st0" x1="588.1" y1="466.3" x2="626.1" y2="466.3"/>
</g>
<g id="ARC_3_">
	<path class="st0" d="M631.6,439.8c0.6,0,1-0.4,1-1"/>
</g>
<g id="ARC_4_">
	<path class="st0" d="M632.6,430.8c0-0.6-0.4-1-1-1"/>
</g>
<g id="ARC_5_">
	<path class="st0" d="M632.6,450.8c0-0.6-0.4-1-1-1"/>
</g>
<g id="ARC_6_">
	<path class="st0" d="M631.6,459.8c0.6,0,1-0.4,1-1"/>
</g>
<g id="ARC_7_">
	<path class="st0" d="M581.6,458.8c0,0.6,0.4,1,1,1"/>
</g>
<g id="ARC_8_">
	<path class="st0" d="M582.6,449.8c-0.6,0-1,0.4-1,1"/>
</g>
<g id="ARC_9_">
	<path class="st0" d="M582.6,429.8c-0.6,0-1,0.4-1,1"/>
</g>
<g id="LINE_12_">
	<line class="st0" x1="631.6" y1="459.8" x2="627.1" y2="459.8"/>
</g>
<g id="LINE_13_">
	<line class="st0" x1="632.6" y1="450.8" x2="632.6" y2="458.8"/>
</g>
<g id="LINE_14_">
	<line class="st0" x1="627.1" y1="449.8" x2="631.6" y2="449.8"/>
</g>
<g id="LINE_15_">
	<line class="st0" x1="631.6" y1="439.8" x2="627.1" y2="439.8"/>
</g>
<g id="LINE_16_">
	<line class="st0" x1="632.6" y1="430.8" x2="632.6" y2="438.8"/>
</g>
<g id="LINE_17_">
	<line class="st0" x1="627.1" y1="429.8" x2="631.6" y2="429.8"/>
</g>
<g id="LINE_18_">
	<line class="st0" x1="582.6" y1="459.8" x2="587.1" y2="459.8"/>
</g>
<g id="LINE_19_">
	<line class="st0" x1="581.6" y1="450.8" x2="581.6" y2="458.8"/>
</g>
<g id="LINE_20_">
	<line class="st0" x1="587.1" y1="449.8" x2="582.6" y2="449.8"/>
</g>
<g id="LINE_21_">
	<line class="st0" x1="582.6" y1="439.8" x2="587.1" y2="439.8"/>
</g>
<g id="LINE_22_">
	<line class="st0" x1="581.6" y1="430.8" x2="581.6" y2="438.8"/>
</g>
<g id="LINE_23_">
	<line class="st0" x1="587.1" y1="429.8" x2="582.6" y2="429.8"/>
</g>
<g id="LINE_24_">
	<line class="st0" x1="587.1" y1="449.8" x2="587.1" y2="439.8"/>
</g>
<g id="ARC_10_">
	<path class="st0" d="M627.1,424.3c0-0.6-0.4-1-1-1"/>
</g>
<g id="LINE_25_">
	<line class="st0" x1="627.1" y1="429.8" x2="627.1" y2="424.3"/>
</g>
<g id="LINE_26_">
	<line class="st0" x1="505.8" y1="310.9" x2="495.8" y2="310.9"/>
</g>
<g id="LINE_27_">
	<line class="st0" x1="505.8" y1="258.9" x2="495.8" y2="258.9"/>
</g>
<g id="LINE_28_">
	<line class="st0" x1="755.4" y1="496.2" x2="793.4" y2="496.2"/>
</g>
<g id="ARC_11_">
	<path class="st0" d="M798.9,469.7c0.6,0,1-0.4,1-1"/>
</g>
<g id="ARC_12_">
	<path class="st0" d="M799.9,460.7c0-0.6-0.4-1-1-1"/>
</g>
<g id="ARC_13_">
	<path class="st0" d="M799.9,480.7c0-0.6-0.4-1-1-1"/>
</g>
<g id="ARC_14_">
	<path class="st0" d="M798.9,489.7c0.6,0,1-0.4,1-1"/>
</g>
<g id="ARC_15_">
	<path class="st0" d="M748.9,488.7c0,0.6,0.4,1,1,1"/>
</g>
<g id="ARC_16_">
	<path class="st0" d="M749.9,479.7c-0.6,0-1,0.4-1,1"/>
</g>
<g id="ARC_17_">
	<path class="st0" d="M749.9,459.7c-0.6,0-1,0.4-1,1"/>
</g>
<g id="LINE_29_">
	<line class="st0" x1="798.9" y1="489.7" x2="794.4" y2="489.7"/>
</g>
<g id="LINE_30_">
	<line class="st0" x1="799.9" y1="480.7" x2="799.9" y2="488.7"/>
</g>
<g id="LINE_31_">
	<line class="st0" x1="798.9" y1="469.7" x2="794.4" y2="469.7"/>
</g>
<g id="LINE_32_">
	<line class="st0" x1="799.9" y1="460.7" x2="799.9" y2="468.7"/>
</g>
<g id="LINE_33_">
	<line class="st0" x1="794.4" y1="459.7" x2="798.9" y2="459.7"/>
</g>
<g id="LINE_34_">
	<line class="st0" x1="748.9" y1="480.7" x2="748.9" y2="488.7"/>
</g>
<g id="LINE_35_">
	<line class="st0" x1="754.4" y1="479.7" x2="749.9" y2="479.7"/>
</g>
<g id="LINE_36_">
	<line class="st0" x1="749.9" y1="469.7" x2="754.4" y2="469.7"/>
</g>
<g id="LINE_37_">
	<line class="st0" x1="748.9" y1="460.7" x2="748.9" y2="468.7"/>
</g>
<g id="LINE_38_">
	<line class="st0" x1="754.4" y1="459.7" x2="749.9" y2="459.7"/>
</g>
<g id="LINE_39_">
	<line class="st0" x1="754.4" y1="479.7" x2="754.4" y2="469.7"/>
</g>
<g id="CIRCLE">
	<path class="st0" d="M829.1,458.8c0-1.7,1.3-3,3-3s3,1.3,3,3s-1.3,3-3,3S829.1,460.4,829.1,458.8L829.1,458.8z"/>
</g>
<g id="LINE_40_">
	<line class="st0" x1="794.4" y1="479.7" x2="794.4" y2="469.7"/>
</g>
<g id="ARC_18_">
	<path class="st0" d="M793.4,496.2c0.6,0,1-0.4,1-1"/>
</g>
<g id="LINE_41_">
	<line class="st0" x1="794.4" y1="495.2" x2="794.4" y2="489.7"/>
</g>
<g id="ARC_19_">
	<path class="st0" d="M754.4,495.2c0,0.6,0.4,1,1,1"/>
</g>
<g id="LINE_42_">
	<line class="st0" x1="581.1" y1="380.3" x2="585.6" y2="380.3"/>
</g>
<g id="LINE_43_">
	<line class="st0" x1="586.6" y1="381.3" x2="586.6" y2="389.3"/>
</g>
<g id="LINE_44_">
	<line class="st0" x1="585.6" y1="390.3" x2="581.1" y2="390.3"/>
</g>
<g id="LINE_45_">
	<line class="st0" x1="581.1" y1="400.3" x2="585.6" y2="400.3"/>
</g>
<g id="LINE_46_">
	<line class="st0" x1="586.6" y1="401.3" x2="586.6" y2="409.3"/>
</g>
<g id="LINE_47_">
	<line class="st0" x1="585.6" y1="410.3" x2="581.1" y2="410.3"/>
</g>
<g id="ARC_20_">
	<path class="st0" d="M536.6,380.3c-0.6,0-1,0.4-1,1"/>
</g>
<g id="ARC_21_">
	<path class="st0" d="M535.6,389.3c0,0.6,0.4,1,1,1"/>
</g>
<g id="ARC_22_">
	<path class="st0" d="M536.6,400.3c-0.6,0-1,0.4-1,1"/>
</g>
<g id="ARC_23_">
	<path class="st0" d="M585.6,410.3c0.6,0,1-0.4,1-1"/>
</g>
<g id="ARC_24_">
	<path class="st0" d="M586.6,401.3c0-0.6-0.4-1-1-1"/>
</g>
<g id="ARC_25_">
	<path class="st0" d="M586.6,381.3c0-0.6-0.4-1-1-1"/>
</g>
<g id="ARC_26_">
	<path class="st0" d="M585.6,390.3c0.6,0,1-0.4,1-1"/>
</g>
<g id="LINE_48_">
	<line class="st0" x1="542.1" y1="416.8" x2="580.1" y2="416.8"/>
</g>
<g id="LINE_49_">
	<line class="st0" x1="790.8" y1="309" x2="752.8" y2="309"/>
</g>
<g id="LINE_50_">
	<line class="st0" x1="534.6" y1="314" x2="534.6" y2="309.5"/>
</g>
<g id="LINE_51_">
	<line class="st0" x1="803.7" y1="243.2" x2="803.7" y2="249.2"/>
</g>
<g id="LINE_52_">
	<line class="st0" x1="544.6" y1="309.5" x2="544.6" y2="314"/>
</g>
<g id="LINE_53_">
	<line class="st0" x1="826.8" y1="271.2" x2="816.8" y2="271.2"/>
</g>
<g id="LINE_54_">
	<line class="st0" x1="545.6" y1="315" x2="553.6" y2="315"/>
</g>
<g id="LINE_55_">
	<line class="st0" x1="889.7" y1="439.2" x2="883.7" y2="439.2"/>
</g>
<g id="LINE_56_">
	<line class="st0" x1="554.6" y1="314" x2="554.6" y2="257.5"/>
</g>
<g id="LINE_57_">
	<line class="st0" x1="843.7" y1="249.2" x2="843.7" y2="243.2"/>
</g>
<g id="LINE_58_">
	<line class="st0" x1="524.6" y1="257.5" x2="524.6" y2="253"/>
</g>
<g id="LINE_59_">
	<line class="st0" x1="856.8" y1="348.2" x2="856.8" y2="338.2"/>
</g>
<g id="LINE_60_">
	<line class="st0" x1="525.6" y1="252" x2="533.6" y2="252"/>
</g>
<g id="CIRCLE_1_">
	<path class="st0" d="M736.4,467.1c0-1.4,1.1-2.5,2.5-2.5s2.5,1.1,2.5,2.5s-1.1,2.5-2.5,2.5S736.4,468.5,736.4,467.1L736.4,467.1z"
		/>
</g>
<g id="LINE_61_">
	<line class="st0" x1="846.8" y1="271.2" x2="846.8" y2="276.9"/>
</g>
<g id="LINE_62_">
	<line class="st0" x1="545.6" y1="252" x2="553.6" y2="252"/>
</g>
<g id="LINE_63_">
	<line class="st0" x1="846.8" y1="271.2" x2="836.8" y2="271.2"/>
</g>
<g id="LINE_64_">
	<line class="st0" x1="554.6" y1="253" x2="554.6" y2="257.5"/>
</g>
<g id="LINE_65_">
	<line class="st0" x1="823.7" y1="514.3" x2="815.7" y2="514.3"/>
</g>
<g id="CIRCLE_2_">
	<path class="st0" d="M582.5,285.6c0-1.4,1.1-2.5,2.5-2.5s2.5,1.1,2.5,2.5c0,1.4-1.1,2.5-2.5,2.5S582.5,287,582.5,285.6L582.5,285.6
		z"/>
</g>
<g id="ARC_27_">
	<path class="st0" d="M524.6,314c0,0.6,0.4,1,1,1"/>
</g>
<g id="LINE_66_">
	<line class="st0" x1="826.8" y1="271.2" x2="826.8" y2="276.9"/>
</g>
<g id="ARC_28_">
	<path class="st0" d="M533.6,315c0.6,0,1-0.4,1-1"/>
</g>
<g id="LINE_67_">
	<line class="st0" x1="889.7" y1="329.2" x2="883.7" y2="329.2"/>
</g>
<g id="ARC_29_">
	<path class="st0" d="M544.6,314c0,0.6,0.4,1,1,1"/>
</g>
<g id="LINE_68_">
	<line class="st0" x1="816.8" y1="276.9" x2="826.8" y2="276.9"/>
</g>
<g id="ARC_30_">
	<path class="st0" d="M553.6,315c0.6,0,1-0.4,1-1"/>
</g>
<g id="LINE_69_">
	<line class="st0" x1="505.8" y1="310.9" x2="505.8" y2="315.4"/>
</g>
<g id="LINE_70_">
	<line class="st0" x1="851.1" y1="348.2" x2="856.8" y2="348.2"/>
</g>
<g id="ARC_31_">
	<path class="st0" d="M554.6,253c0-0.6-0.4-1-1-1"/>
</g>
<g id="LINE_71_">
	<line class="st0" x1="724" y1="262.1" x2="734" y2="262.1"/>
</g>
<g id="LINE_72_">
	<line class="st0" x1="746.3" y1="315.6" x2="746.3" y2="323.6"/>
</g>
<g id="ARC_32_">
	<path class="st0" d="M545.6,252c-0.6,0-1,0.4-1,1"/>
</g>
<g id="LINE_73_">
	<line class="st0" x1="816.7" y1="504.2" x2="816.7" y2="443.8"/>
</g>
<g id="LINE_74_">
	<line class="st0" x1="544.6" y1="257.5" x2="544.6" y2="253"/>
</g>
<g id="LINE_75_">
	<line class="st0" x1="851.1" y1="338.2" x2="851.1" y2="348.2"/>
</g>
<g id="ARC_33_">
	<path class="st0" d="M559.4,395.5c0,0.6,0.4,1,1,1"/>
</g>
<g id="ARC_34_">
	<path class="st0" d="M794.5,303.8c-4.8-3-10.3-4.5-15.9-4.5"/>
</g>
<g id="ARC_35_">
	<path class="st0" d="M550.7,282.9c0-0.6-0.7-1-1.5-1"/>
</g>
<g id="LINE_76_">
	<line class="st0" x1="581.1" y1="380.3" x2="581.1" y2="377.3"/>
</g>
<g id="CIRCLE_3_">
	<path class="st0" d="M856.7,274.2c0-1.1,0.9-2,2-2c1.1,0,2,0.9,2,2c0,1.1-0.9,2-2,2C857.6,276.2,856.7,275.3,856.7,274.2
		L856.7,274.2z"/>
</g>
<g id="LINE_77_">
	<line class="st0" x1="706.7" y1="299.2" x2="778.6" y2="299.2"/>
</g>
<g id="LINE_78_">
	<line class="st0" x1="560.9" y1="317" x2="598.3" y2="317"/>
</g>
<g id="ARC_36_">
	<path class="st0" d="M549.2,285.2c0.8,0,1.5-0.4,1.5-1"/>
</g>
<g id="LINE_79_">
	<line class="st0" x1="836.1" y1="390.6" x2="830.3" y2="341"/>
</g>
<g id="CIRCLE_4_">
	<path class="st0" d="M801.7,274.2c0-1.1,0.9-2,2-2c1.1,0,2,0.9,2,2c0,1.1-0.9,2-2,2C802.6,276.2,801.7,275.3,801.7,274.2
		L801.7,274.2z"/>
</g>
<g id="ARC_37_">
	<path class="st0" d="M653.8,339.4c25.2,24.3,54.8,43.5,87.3,56.7"/>
</g>
<g id="LINE_80_">
	<line class="st0" x1="793.4" y1="453.2" x2="755.4" y2="453.2"/>
</g>
<g id="CIRCLE_5_">
	<path class="st0" d="M505.3,493.8c0-1.1,0.9-2,2-2c1.1,0,2,0.9,2,2c0,1.1-0.9,2-2,2C506.1,495.8,505.3,494.9,505.3,493.8
		L505.3,493.8z"/>
</g>
<g id="LINE_81_">
	<line class="st0" x1="883.7" y1="289.2" x2="883.7" y2="249.2"/>
</g>
<g id="ARC_38_">
	<path class="st0" d="M653.8,339.4C638.9,325,619,317,598.3,317"/>
</g>
<g id="CIRCLE_6_">
	<path class="st0" d="M829.1,505.9c0-1.7,1.3-3,3-3s3,1.3,3,3s-1.3,3-3,3S829.1,507.5,829.1,505.9L829.1,505.9z"/>
</g>
<g id="LINE_82_">
	<line class="st0" x1="791.8" y1="330.1" x2="791.8" y2="325.5"/>
</g>
<g id="ARC_39_">
	<path class="st0" d="M755.4,453.2c-0.6,0-1,0.4-1,1"/>
</g>
<g id="LINE_83_">
	<line class="st0" x1="822.6" y1="422.9" x2="836.1" y2="390.6"/>
</g>
<g id="ARC_40_">
	<path class="st0" d="M741.1,396c7.1,2.9,14.8,4.4,22.5,4.4"/>
</g>
<g id="LINE_84_">
	<line class="st0" x1="754.4" y1="489.7" x2="754.4" y2="495.2"/>
</g>
<g id="LINE_85_">
	<line class="st0" x1="803.7" y1="243.2" x2="843.7" y2="243.2"/>
</g>
<g id="LINE_86_">
	<line class="st0" x1="746.5" y1="450.4" x2="778.7" y2="450.4"/>
</g>
<g id="LINE_87_">
	<line class="st0" x1="754.4" y1="454.2" x2="754.4" y2="459.7"/>
</g>
<g id="LINE_88_">
	<line class="st0" x1="889.7" y1="514.2" x2="889.7" y2="439.2"/>
</g>
<g id="LINE_89_">
	<line class="st0" x1="763.6" y1="400.4" x2="778.7" y2="400.4"/>
</g>
<g id="LINE_90_">
	<line class="st0" x1="534.6" y1="253" x2="534.6" y2="257.5"/>
</g>
<g id="LINE_91_">
	<line class="st0" x1="816.8" y1="271.2" x2="816.8" y2="276.9"/>
</g>
<g id="ARC_41_">
	<path class="st0" d="M530.1,281.9c-0.8,0-1.5,0.4-1.5,1"/>
</g>
<g id="LINE_92_">
	<line class="st0" x1="843.7" y1="249.2" x2="883.7" y2="249.2"/>
</g>
<g id="ARC_42_">
	<path class="st0" d="M715,444c9.9,4.3,20.6,6.4,31.5,6.4"/>
</g>
<g id="ARC_43_">
	<path class="st0" d="M528.7,284.2c0,0.6,0.7,1,1.5,1"/>
</g>
<g id="ARC_44_">
	<path class="st0" d="M708.7,249.2c-13.8,0-25,11.2-25,25c0,13.8,11.2,25,25,25"/>
</g>
<g id="ARC_45_">
	<path class="st0" d="M620.4,376.7c-5.7-6.2-13.7-9.8-22.2-9.8"/>
</g>
<g id="LINE_93_">
	<line class="st0" x1="530.1" y1="285.2" x2="549.2" y2="285.2"/>
</g>
<g id="LINE_94_">
	<line class="st0" x1="708.7" y1="249.2" x2="803.7" y2="249.2"/>
</g>
<g id="ARC_46_">
	<path class="st0" d="M778.7,450.4c13.8,0,25-11.2,25-25c0-13.8-11.2-25-25-25"/>
</g>
<g id="LINE_95_">
	<line class="st0" x1="530.1" y1="281.9" x2="549.2" y2="281.9"/>
</g>
<g id="LINE_96_">
	<line class="st0" x1="826.7" y1="514.2" x2="883.7" y2="514.2"/>
</g>
<g id="ARC_47_">
	<path class="st0" d="M620.4,376.7c26.4,28.9,58.6,51.8,94.6,67.2"/>
</g>
<g id="LINE_97_">
	<line class="st0" x1="550.7" y1="282.9" x2="550.7" y2="284.2"/>
</g>
<g id="LINE_98_">
	<line class="st0" x1="830.3" y1="341" x2="794.5" y2="303.8"/>
</g>
<g id="LINE_99_">
	<line class="st0" x1="560.9" y1="367" x2="598.3" y2="367"/>
</g>
<g id="LINE_100_">
	<line class="st0" x1="528.7" y1="282.9" x2="528.7" y2="284.2"/>
</g>
<g id="CIRCLE_7_">
	<path class="st0" d="M572,341.5c0-7.2,5.8-13,13-13s13,5.8,13,13c0,7.2-5.8,13-13,13S572,348.6,572,341.5L572,341.5z"/>
</g>
<g id="LINE_101_">
	<line class="st0" x1="883.7" y1="439.2" x2="883.7" y2="329.2"/>
</g>
<g id="ARC_48_">
	<path class="st0" d="M560.9,317c-13.8,0-25,11.2-25,25c0,13.8,11.2,25,25,25"/>
</g>
<g id="ARC_49_">
	<path class="st0" d="M534.6,253c0-0.6-0.4-1-1-1"/>
</g>
<g id="ARC_50_">
	<path class="st0" d="M822.6,422.9c-3.9,6.3-5.9,13.5-5.9,20.9"/>
</g>
<g id="CIRCLE_8_">
	<path class="st0" d="M695.9,490.7c0-10.8,8.7-19.5,19.5-19.5s19.5,8.7,19.5,19.5c0,10.8-8.7,19.5-19.5,19.5
		S695.9,501.4,695.9,490.7L695.9,490.7z"/>
</g>
<g id="ARC_51_">
	<path class="st0" d="M525.6,252c-0.6,0-1,0.4-1,1"/>
</g>
<g id="LINE_102_">
	<line class="st0" x1="889.7" y1="289.2" x2="889.7" y2="329.2"/>
</g>
<g id="ARC_52_">
	<path class="st0" d="M535.6,409.3c0,0.6,0.4,1,1,1"/>
</g>
<g id="LINE_103_">
	<line class="st0" x1="525.6" y1="315" x2="533.6" y2="315"/>
</g>
<g id="LINE_104_">
	<line class="st0" x1="883.7" y1="289.2" x2="889.7" y2="289.2"/>
</g>
<g id="LINE_105_">
	<line class="st0" x1="524.6" y1="257.5" x2="524.6" y2="314"/>
</g>
<g id="LINE_106_">
	<line class="st0" x1="836.8" y1="276.9" x2="846.8" y2="276.9"/>
</g>
<g id="ARC_53_">
	<path class="st0" d="M748.9,468.7c0,0.6,0.4,1,1,1"/>
</g>
<g id="CIRCLE_9_">
	<path class="st0" d="M821.8,507.9c0-0.4,0.4-0.8,0.8-0.8s0.8,0.4,0.8,0.8s-0.4,0.8-0.8,0.8S821.8,508.3,821.8,507.9L821.8,507.9z"
		/>
</g>
<g id="ARC_54_">
	<path class="st0" d="M570.4,375.3c0,0.6,0.4,1,1,1"/>
</g>
<g id="ARC_55_">
	<path class="st0" d="M794.4,454.2c0-0.6-0.4-1-1-1"/>
</g>
<g id="CIRCLE_10_">
	<path class="st0" d="M856.7,443.8c0-1.1,0.9-2,2-2c1.1,0,2,0.9,2,2c0,1.1-0.9,2-2,2C857.6,445.8,856.7,444.9,856.7,443.8
		L856.7,443.8z"/>
</g>
<g id="LINE_107_">
	<line class="st0" x1="836.8" y1="271.2" x2="836.8" y2="276.9"/>
</g>
<g id="LINE_108_">
	<line class="st0" x1="544.6" y1="309.5" x2="534.6" y2="309.5"/>
</g>
<g id="CIRCLE_11_">
	<path class="st0" d="M596.1,285.1c0-7.2,5.8-13,13-13s13,5.8,13,13c0,7.2-5.8,13-13,13S596.1,292.3,596.1,285.1L596.1,285.1z"/>
</g>
<g id="CIRCLE_12_">
	<path class="st0" d="M876.2,505.9c0-1.7,1.3-3,3-3s3,1.3,3,3s-1.3,3-3,3S876.2,507.5,876.2,505.9L876.2,505.9z"/>
</g>
<g id="LINE_109_">
	<line class="st0" x1="724" y1="262.1" x2="724" y2="256.4"/>
</g>
<g id="LINE_110_">
	<line class="st0" x1="544.6" y1="257.5" x2="534.6" y2="257.5"/>
</g>
<g id="ARC_56_">
	<path class="st0" d="M561.7,396.5c0.6,0,1-0.4,1-1"/>
</g>
<g id="ARC_57_">
	<path class="st0" d="M816.7,504.2c0,5.5,4.5,10,10,10"/>
</g>
<g id="LINE_111_">
	<line class="st0" x1="724" y1="256.4" x2="734" y2="256.4"/>
</g>
<g id="ARC_58_">
	<path class="st0" d="M560.4,377.5c-0.6,0-1,0.4-1,1"/>
</g>
<g id="LINE_112_">
	<line class="st0" x1="851.1" y1="338.2" x2="856.8" y2="338.2"/>
</g>
<g id="LINE_113_">
	<line class="st0" x1="794.4" y1="479.7" x2="798.9" y2="479.7"/>
</g>
<g id="CIRCLE_13_">
	<path class="st0" d="M821.8,501.4c0-0.4,0.4-0.8,0.8-0.8s0.8,0.4,0.8,0.8s-0.4,0.8-0.8,0.8S821.8,501.8,821.8,501.4L821.8,501.4z"
		/>
</g>
<g id="ARC_59_">
	<path class="st0" d="M585,260.6c-13.8,0-25,11.2-25,25c0,13.8,11.2,25,25,25"/>
</g>
<g id="LINE_114_">
	<line class="st0" x1="797.3" y1="316.5" x2="797.3" y2="324.5"/>
</g>
<g id="CIRCLE_14_">
	<path class="st0" d="M504.7,343.7c0-1.4,1.2-2.6,2.6-2.6s2.6,1.2,2.6,2.6c0,1.4-1.2,2.6-2.6,2.6S504.7,345.2,504.7,343.7
		L504.7,343.7z"/>
</g>
<g id="LINE_115_">
	<line class="st0" x1="559.4" y1="378.5" x2="559.4" y2="395.5"/>
</g>
<g id="LINE_116_">
	<line class="st0" x1="856.8" y1="328.2" x2="856.8" y2="318.2"/>
</g>
<g id="LINE_117_">
	<line class="st0" x1="562.7" y1="378.5" x2="562.7" y2="395.5"/>
</g>
<g id="LINE_118_">
	<line class="st0" x1="820.7" y1="465.5" x2="826.4" y2="465.5"/>
</g>
<g id="LINE_119_">
	<line class="st0" x1="561.7" y1="396.5" x2="560.4" y2="396.5"/>
</g>
<g id="CIRCLE_15_">
	<path class="st0" d="M689.3,514.2c0-1.4,1.1-2.5,2.5-2.5s2.5,1.1,2.5,2.5s-1.1,2.6-2.5,2.6S689.3,515.6,689.3,514.2L689.3,514.2z"
		/>
</g>
<g id="LINE_120_">
	<line class="st0" x1="820.7" y1="465.5" x2="820.7" y2="475.5"/>
</g>
<g id="LINE_121_">
	<line class="st0" x1="561.7" y1="377.5" x2="560.4" y2="377.5"/>
</g>
<g id="LINE_122_">
	<line class="st0" x1="820.7" y1="475.5" x2="826.4" y2="475.5"/>
</g>
<g id="CIRCLE_16_">
	<path class="st0" d="M491.3,284.9c0-5.5,4.5-10,10-10s10,4.5,10,10c0,5.5-4.5,10-10,10S491.3,290.4,491.3,284.9L491.3,284.9z"/>
</g>
<g id="LINE_123_">
	<line class="st0" x1="883.7" y1="514.2" x2="889.7" y2="514.2"/>
</g>
<g id="LINE_124_">
	<line class="st0" x1="851.1" y1="318.2" x2="856.8" y2="318.2"/>
</g>
<g id="ARC_60_">
	<path class="st0" d="M790.8,331.1c0.6,0,1-0.4,1-1"/>
</g>
<g id="LINE_125_">
	<line class="st0" x1="734" y1="262.1" x2="734" y2="256.4"/>
</g>
<g id="LINE_126_">
	<line class="st0" x1="826.4" y1="475.5" x2="826.4" y2="465.5"/>
</g>
<g id="LINE_127_">
	<line class="st0" x1="851.1" y1="328.2" x2="856.8" y2="328.2"/>
</g>
<g id="LINE_128_">
	<line class="st0" x1="752.8" y1="331.1" x2="790.8" y2="331.1"/>
</g>
<g id="LINE_129_">
	<line class="st0" x1="851.1" y1="318.2" x2="851.1" y2="328.2"/>
</g>
<g id="LINE_130_">
	<line class="st0" x1="751.8" y1="324.6" x2="751.8" y2="330.1"/>
</g>
<g id="CIRCLE_17_">
	<path class="st0" d="M701.3,339.7c0-1.4,1.1-2.5,2.5-2.5s2.5,1.1,2.5,2.5s-1.1,2.5-2.5,2.5S701.3,341,701.3,339.7L701.3,339.7z"/>
</g>
<g id="LINE_131_">
	<line class="st0" x1="820.7" y1="495.5" x2="826.4" y2="495.5"/>
</g>
<g id="ARC_61_">
	<path class="st0" d="M796.3,325.5c0.6,0,1-0.4,1-1"/>
</g>
<g id="ARC_62_">
	<path class="st0" d="M797.3,316.5c0-0.6-0.4-1-1-1"/>
</g>
<g id="ARC_63_">
	<path class="st0" d="M746.3,323.6c0,0.6,0.4,1,1,1"/>
</g>
<g id="ARC_64_">
	<path class="st0" d="M747.3,314.6c-0.6,0-1,0.4-1,1"/>
</g>
<g id="LINE_132_">
	<line class="st0" x1="796.3" y1="325.5" x2="791.8" y2="325.5"/>
</g>
<g id="LINE_133_">
	<line class="st0" x1="791.8" y1="315.5" x2="796.3" y2="315.5"/>
</g>
<g id="LINE_134_">
	<line class="st0" x1="747.3" y1="324.6" x2="751.8" y2="324.6"/>
</g>
<g id="ARC_65_">
	<path class="st0" d="M588.1,423.3c-0.6,0-1,0.4-1,1"/>
</g>
<g id="LINE_135_">
	<line class="st0" x1="751.8" y1="314.6" x2="747.3" y2="314.6"/>
</g>
<g id="ARC_66_">
	<path class="st0" d="M791.8,310c0-0.6-0.4-1-1-1"/>
</g>
<g id="LINE_136_">
	<line class="st0" x1="791.8" y1="315.5" x2="791.8" y2="310"/>
</g>
<g id="LINE_137_">
	<line class="st0" x1="751.8" y1="309.1" x2="751.8" y2="314.6"/>
</g>
<g id="ARC_67_">
	<path class="st0" d="M752.8,309c-0.6,0-1,0.4-1,1"/>
</g>
<g id="CIRCLE_18_">
	<path class="st0" d="M732.6,423.8c0-7.2,5.8-13,13-13c7.2,0,13,5.8,13,13c0,7.2-5.8,13-13,13C738.4,436.8,732.6,431,732.6,423.8
		L732.6,423.8z"/>
</g>
<g id="LINE_138_">
	<line class="st0" x1="485.8" y1="258.9" x2="485.8" y2="315.4"/>
</g>
<g id="LINE_139_">
	<line class="st0" x1="486.8" y1="316.4" x2="494.8" y2="316.4"/>
</g>
<g id="LINE_140_">
	<line class="st0" x1="495.8" y1="315.4" x2="495.8" y2="310.9"/>
</g>
<g id="LINE_141_">
	<line class="st0" x1="506.8" y1="316.4" x2="514.8" y2="316.4"/>
</g>
<g id="LINE_142_">
	<line class="st0" x1="515.8" y1="315.4" x2="515.8" y2="258.9"/>
</g>
<g id="LINE_143_">
	<line class="st0" x1="485.8" y1="258.9" x2="485.8" y2="254.4"/>
</g>
<g id="LINE_144_">
	<line class="st0" x1="486.8" y1="253.4" x2="494.8" y2="253.4"/>
</g>
<g id="LINE_145_">
	<line class="st0" x1="495.8" y1="254.4" x2="495.8" y2="258.9"/>
</g>
<g id="LINE_146_">
	<line class="st0" x1="794.4" y1="459.7" x2="794.4" y2="454.2"/>
</g>
<g id="CIRCLE_19_">
	<path class="st0" d="M677.3,396c0-1.4,1.1-2.5,2.5-2.5c1.4,0,2.5,1.1,2.5,2.5s-1.1,2.5-2.5,2.5C678.4,398.5,677.3,397.4,677.3,396
		L677.3,396z"/>
</g>
<g id="LINE_147_">
	<line class="st0" x1="505.8" y1="258.9" x2="505.8" y2="254.4"/>
</g>
<g id="LINE_148_">
	<line class="st0" x1="506.8" y1="253.4" x2="514.8" y2="253.4"/>
</g>
<g id="LINE_149_">
	<line class="st0" x1="515.8" y1="254.4" x2="515.8" y2="258.9"/>
</g>
<g id="ARC_68_">
	<path class="st0" d="M485.8,315.4c0,0.6,0.4,1,1,1"/>
</g>
<g id="ARC_69_">
	<path class="st0" d="M494.8,316.4c0.6,0,1-0.4,1-1"/>
</g>
<g id="ARC_70_">
	<path class="st0" d="M505.8,315.4c0,0.6,0.4,1,1,1"/>
</g>
<g id="ARC_71_">
	<path class="st0" d="M514.8,316.4c0.6,0,1-0.4,1-1"/>
</g>
<g id="ARC_72_">
	<path class="st0" d="M515.8,254.4c0-0.6-0.4-1-1-1"/>
</g>
<g id="LINE_150_">
	<line class="st0" x1="749.9" y1="489.7" x2="754.4" y2="489.7"/>
</g>
<g id="CIRCLE_20_">
	<path class="st0" d="M720.7,356.1c0-7.2,5.8-13,13-13s13,5.8,13,13c0,7.2-5.8,13-13,13S720.7,363.3,720.7,356.1L720.7,356.1z"/>
</g>
<g id="ARC_73_">
	<path class="st0" d="M506.8,253.4c-0.6,0-1,0.4-1,1"/>
</g>
<g id="ARC_74_">
	<path class="st0" d="M486.8,253.4c-0.6,0-1,0.4-1,1"/>
</g>
<g id="ARC_75_">
	<path class="st0" d="M495.8,254.4c0-0.6-0.4-1-1-1"/>
</g>
<g id="LINE_151_">
	<line class="st0" x1="570.4" y1="374.8" x2="570.4" y2="375.3"/>
</g>
<g id="LINE_152_">
	<line class="st0" x1="571.4" y1="376.3" x2="580.1" y2="376.3"/>
</g>
<g id="ARC_76_">
	<path class="st0" d="M570.4,374.8c0-0.6-0.4-1-1-1"/>
</g>
<g id="ARC_77_">
	<path class="st0" d="M581.1,377.3c0-0.6-0.4-1-1-1"/>
</g>
<g id="LINE_153_">
	<line class="st0" x1="532.3" y1="341.7" x2="532.3" y2="413.7"/>
</g>
<g id="LINE_154_">
	<line class="st0" x1="482.3" y1="343.7" x2="482.3" y2="438.8"/>
</g>
<g id="LINE_155_">
	<line class="st0" x1="707.6" y1="318.1" x2="704.4" y2="322.7"/>
</g>
<g id="LINE_156_">
	<line class="st0" x1="569.4" y1="373.8" x2="552.5" y2="373.8"/>
</g>
<g id="CIRCLE_21_">
	<path class="st0" d="M674.8,493.8c0-1.1,0.9-2,2-2s2,0.9,2,2c0,1.1-0.9,2-2,2S674.8,494.9,674.8,493.8L674.8,493.8z"/>
</g>
<g id="LINE_157_">
	<line class="st0" x1="495.1" y1="369.1" x2="489.4" y2="369.1"/>
</g>
<g id="ARC_78_">
	<path class="st0" d="M532.3,343.7c0-13.8-11.2-25-25-25s-25,11.2-25,25"/>
</g>
<g id="LINE_158_">
	<line class="st0" x1="551.3" y1="486.1" x2="561.3" y2="486.1"/>
</g>
<g id="LINE_159_">
	<line class="st0" x1="561.3" y1="486.1" x2="561.3" y2="491.8"/>
</g>
<g id="LINE_160_">
	<line class="st0" x1="561.3" y1="491.8" x2="551.3" y2="491.8"/>
</g>
<g id="LINE_161_">
	<line class="st0" x1="581.3" y1="486.1" x2="581.3" y2="491.8"/>
</g>
<g id="LINE_162_">
	<line class="st0" x1="581.3" y1="491.8" x2="571.3" y2="491.8"/>
</g>
<g id="LINE_163_">
	<line class="st0" x1="551.3" y1="486.1" x2="551.3" y2="491.8"/>
</g>
<g id="LINE_164_">
	<line class="st0" x1="571.3" y1="486.1" x2="571.3" y2="491.8"/>
</g>
<g id="LINE_165_">
	<line class="st0" x1="504.3" y1="481.8" x2="504.3" y2="471.8"/>
</g>
<g id="LINE_166_">
	<line class="st0" x1="504.3" y1="471.8" x2="510" y2="471.8"/>
</g>
<g id="ARC_79_">
	<path class="st0" d="M581.6,438.8c0,0.6,0.4,1,1,1"/>
</g>
<g id="CIRCLE_22_">
	<path class="st0" d="M696.6,412.5c0-7.2,5.8-13,13-13c7.2,0,13,5.8,13,13c0,7.2-5.8,13-13,13C702.5,425.5,696.6,419.7,696.6,412.5
		L696.6,412.5z"/>
</g>
<g id="LINE_167_">
	<line class="st0" x1="510" y1="471.8" x2="510" y2="481.8"/>
</g>
<g id="CIRCLE_23_">
	<path class="st0" d="M505.3,438.8c0-1.1,0.9-2,2-2c1.1,0,2,0.9,2,2c0,1.1-0.9,2-2,2C506.1,440.8,505.3,439.9,505.3,438.8
		L505.3,438.8z"/>
</g>
<g id="LINE_168_">
	<line class="st0" x1="504.3" y1="461.8" x2="504.3" y2="451.8"/>
</g>
<g id="LINE_169_">
	<line class="st0" x1="504.3" y1="451.8" x2="510" y2="451.8"/>
</g>
<g id="LINE_170_">
	<line class="st0" x1="510" y1="451.8" x2="510" y2="461.8"/>
</g>
<g id="LINE_171_">
	<line class="st0" x1="504.3" y1="481.8" x2="510" y2="481.8"/>
</g>
<g id="LINE_172_">
	<line class="st0" x1="504.3" y1="461.8" x2="510" y2="461.8"/>
</g>
<g id="LINE_173_">
	<line class="st0" x1="495.1" y1="359.1" x2="489.4" y2="359.1"/>
</g>
<g id="LINE_174_">
	<line class="st0" x1="495.1" y1="359.1" x2="495.1" y2="369.1"/>
</g>
<g id="CIRCLE_24_">
	<path class="st0" d="M876.2,458.8c0-1.7,1.3-3,3-3s3,1.3,3,3s-1.3,3-3,3S876.2,460.4,876.2,458.8L876.2,458.8z"/>
</g>
<g id="LINE_175_">
	<line class="st0" x1="489.4" y1="359.1" x2="489.4" y2="369.1"/>
</g>
<g id="ARC_80_">
	<path class="st0" d="M562.7,378.5c0-0.6-0.4-1-1-1"/>
</g>
<g id="CIRCLE_25_">
	<path class="st0" d="M736.4,514.2c0-1.4,1.1-2.5,2.5-2.5s2.5,1.1,2.5,2.5s-1.1,2.6-2.5,2.6S736.4,515.6,736.4,514.2L736.4,514.2z"
		/>
</g>
<g id="CIRCLE_26_">
	<path class="st0" d="M689.3,467.1c0-1.4,1.1-2.5,2.5-2.5s2.5,1.1,2.5,2.5s-1.1,2.5-2.5,2.5S689.3,468.5,689.3,467.1L689.3,467.1z"
		/>
</g>
<g id="LINE_176_">
	<line class="st0" x1="522.3" y1="518.8" x2="522.3" y2="524.8"/>
</g>
<g id="ARC_81_">
	<path class="st0" d="M532.3,413.7c0,5.6,1.6,11.1,4.5,15.9"/>
</g>
<g id="LINE_177_">
	<line class="st0" x1="747.3" y1="461.8" x2="747.3" y2="518.8"/>
</g>
<g id="LINE_178_">
	<line class="st0" x1="747.3" y1="458.7" x2="747.3" y2="450.7"/>
</g>
<g id="LINE_179_">
	<line class="st0" x1="737.3" y1="451.8" x2="676.8" y2="451.8"/>
</g>
<g id="LINE_180_">
	<line class="st0" x1="698.5" y1="455.8" x2="708.5" y2="455.8"/>
</g>
<g id="LINE_181_">
	<line class="st0" x1="708.5" y1="455.8" x2="708.5" y2="461.5"/>
</g>
<g id="LINE_182_">
	<line class="st0" x1="708.5" y1="461.5" x2="698.5" y2="461.5"/>
</g>
<g id="LINE_183_">
	<line class="st0" x1="718.5" y1="455.8" x2="728.5" y2="455.8"/>
</g>
<g id="LINE_184_">
	<line class="st0" x1="728.5" y1="455.8" x2="728.5" y2="461.5"/>
</g>
<g id="LINE_185_">
	<line class="st0" x1="728.5" y1="461.5" x2="718.5" y2="461.5"/>
</g>
<g id="LINE_186_">
	<line class="st0" x1="698.5" y1="455.8" x2="698.5" y2="461.5"/>
</g>
<g id="CIRCLE_27_">
	<path class="st0" d="M629.4,291.2c0-7.2,5.8-13,13-13c7.2,0,13,5.8,13,13c0,7.2-5.8,13-13,13C635.3,304.2,629.4,298.4,629.4,291.2
		L629.4,291.2z"/>
</g>
<g id="LINE_187_">
	<line class="st0" x1="718.5" y1="455.8" x2="718.5" y2="461.5"/>
</g>
<g id="ARC_82_">
	<path class="st0" d="M676.8,451.8c-7.4,0-14.6,2-20.9,5.9"/>
</g>
<g id="ARC_83_">
	<path class="st0" d="M747.3,461.8c0-5.5-4.5-10-10-10"/>
</g>
<g id="LINE_188_">
	<line class="st0" x1="482.3" y1="478.8" x2="476.3" y2="478.8"/>
</g>
<g id="LINE_189_">
	<line class="st0" x1="476.3" y1="478.8" x2="476.3" y2="438.8"/>
</g>
<g id="LINE_190_">
	<line class="st0" x1="476.3" y1="438.8" x2="482.3" y2="438.8"/>
</g>
<g id="LINE_191_">
	<line class="st0" x1="482.3" y1="478.8" x2="482.3" y2="518.8"/>
</g>
<g id="LINE_192_">
	<line class="st0" x1="522.3" y1="524.8" x2="562.3" y2="524.8"/>
</g>
<g id="LINE_193_">
	<line class="st0" x1="562.3" y1="524.8" x2="562.3" y2="518.8"/>
</g>
<g id="LINE_194_">
	<line class="st0" x1="522.3" y1="518.8" x2="482.3" y2="518.8"/>
</g>
<g id="LINE_195_">
	<line class="st0" x1="747.3" y1="518.8" x2="747.3" y2="524.8"/>
</g>
<g id="LINE_196_">
	<line class="st0" x1="747.3" y1="524.8" x2="672.3" y2="524.8"/>
</g>
<g id="LINE_197_">
	<line class="st0" x1="672.3" y1="524.8" x2="672.3" y2="518.8"/>
</g>
<g id="LINE_198_">
	<line class="st0" x1="672.3" y1="518.8" x2="562.3" y2="518.8"/>
</g>
<g id="LINE_199_">
	<line class="st0" x1="655.9" y1="457.7" x2="623.6" y2="471.2"/>
</g>
<g id="LINE_200_">
	<line class="st0" x1="623.6" y1="471.2" x2="574" y2="465.3"/>
</g>
<g id="LINE_201_">
	<line class="st0" x1="574" y1="465.3" x2="536.8" y2="429.5"/>
</g>
<g id="LINE_202_">
	<line class="st0" x1="820.7" y1="485.5" x2="826.4" y2="485.5"/>
</g>
<g id="LINE_203_">
	<line class="st0" x1="820.7" y1="485.5" x2="820.7" y2="495.5"/>
</g>
<g id="LINE_204_">
	<line class="st0" x1="826.4" y1="495.5" x2="826.4" y2="485.5"/>
</g>
<g id="CIRCLE_28_">
	<path class="st0" d="M605.4,347.6c0-7.2,5.8-13,13-13s13,5.8,13,13c0,7.2-5.8,13-13,13S605.4,354.8,605.4,347.6L605.4,347.6z"/>
</g>
<g id="CIRCLE_29_">
	<path class="st0" d="M558.4,342c0-1.4,1.1-2.5,2.5-2.5c1.4,0,2.5,1.1,2.5,2.5s-1.1,2.5-2.5,2.5C559.5,344.5,558.4,343.3,558.4,342
		L558.4,342z"/>
</g>
<g id="LINE_205_">
	<line class="st0" x1="776" y1="410.9" x2="776" y2="420.9"/>
</g>
<g id="LINE_206_">
	<line class="st0" x1="571.3" y1="486.1" x2="581.3" y2="486.1"/>
</g>
<g id="CIRCLE_30_">
	<path class="st0" d="M633.8,368.4c0-7.2,5.8-13,13-13s13,5.8,13,13c0,7.2-5.8,13-13,13S633.8,375.6,633.8,368.4L633.8,368.4z"/>
</g>
<g id="LINE_207_">
	<line class="st0" x1="800.1" y1="364.5" x2="794.4" y2="364.5"/>
</g>
<g id="LINE_208_">
	<line class="st0" x1="776" y1="420.9" x2="770.3" y2="420.9"/>
</g>
<g id="LINE_209_">
	<line class="st0" x1="770.3" y1="420.9" x2="770.3" y2="410.9"/>
</g>
<g id="LINE_210_">
	<line class="st0" x1="776" y1="430.9" x2="776" y2="440.9"/>
</g>
<g id="LINE_211_">
	<line class="st0" x1="776" y1="440.9" x2="770.3" y2="440.9"/>
</g>
<g id="LINE_212_">
	<line class="st0" x1="770.3" y1="440.9" x2="770.3" y2="430.9"/>
</g>
<g id="LINE_213_">
	<line class="st0" x1="776" y1="410.9" x2="770.3" y2="410.9"/>
</g>
<g id="LINE_214_">
	<line class="st0" x1="776" y1="430.9" x2="770.3" y2="430.9"/>
</g>
<g id="LINE_215_">
	<line class="st0" x1="675.4" y1="368.7" x2="683.6" y2="374.4"/>
</g>
<g id="CIRCLE_31_">
	<path class="st0" d="M657.8,312c0-7.2,5.8-13,13-13c7.2,0,13,5.8,13,13c0,7.2-5.8,13-13,13C663.7,325,657.8,319.2,657.8,312
		L657.8,312z"/>
</g>
<g id="LINE_216_">
	<line class="st0" x1="683.6" y1="374.4" x2="680.3" y2="379.1"/>
</g>
<g id="LINE_217_">
	<line class="st0" x1="680.3" y1="379.1" x2="672.1" y2="373.4"/>
</g>
<g id="CIRCLE_32_">
	<path class="st0" d="M788.5,425.4c0-1.4,1.1-2.5,2.5-2.5s2.5,1.1,2.5,2.5s-1.1,2.5-2.5,2.5S788.5,426.8,788.5,425.4L788.5,425.4z"
		/>
</g>
<g id="LINE_218_">
	<line class="st0" x1="691.8" y1="380.2" x2="699.9" y2="385.9"/>
</g>
<g id="LINE_219_">
	<line class="st0" x1="699.9" y1="385.9" x2="696.7" y2="390.6"/>
</g>
<g id="LINE_220_">
	<line class="st0" x1="696.7" y1="390.6" x2="688.5" y2="384.9"/>
</g>
<g id="LINE_221_">
	<line class="st0" x1="675.4" y1="368.7" x2="672.1" y2="373.4"/>
</g>
<g id="LINE_222_">
	<line class="st0" x1="691.8" y1="380.2" x2="688.5" y2="384.9"/>
</g>
<g id="LINE_223_">
	<line class="st0" x1="585" y1="310.6" x2="622.3" y2="310.6"/>
</g>
<g id="ARC_84_">
	<path class="st0" d="M644.5,320.4c26.4,28.9,58.6,51.8,94.6,67.2"/>
</g>
<g id="ARC_85_">
	<path class="st0" d="M644.5,320.4c-5.7-6.2-13.7-9.8-22.2-9.8"/>
</g>
<g id="ARC_86_">
	<path class="st0" d="M739.1,387.6c9.9,4.3,20.6,6.4,31.5,6.4"/>
</g>
<g id="ARC_87_">
	<path class="st0" d="M751.8,330.1c0,0.6,0.4,1,1,1"/>
</g>
<g id="CIRCLE_33_">
	<path class="st0" d="M812.6,369c0-1.4,1.1-2.5,2.5-2.5c1.4,0,2.5,1.1,2.5,2.5s-1.1,2.5-2.5,2.5C813.7,371.5,812.6,370.4,812.6,369
		L812.6,369z"/>
</g>
<g id="LINE_224_">
	<line class="st0" x1="585" y1="260.6" x2="622.3" y2="260.6"/>
</g>
<g id="ARC_88_">
	<path class="st0" d="M677.9,283c25.2,24.3,54.8,43.5,87.3,56.7"/>
</g>
<g id="ARC_89_">
	<path class="st0" d="M677.9,283c-14.9-14.4-34.8-22.4-55.5-22.4"/>
</g>
<g id="ARC_90_">
	<path class="st0" d="M765.2,339.7c7.1,2.9,14.8,4.4,22.5,4.4"/>
</g>
<g id="LINE_225_">
	<line class="st0" x1="787.7" y1="344" x2="802.8" y2="344"/>
</g>
<g id="CIRCLE_34_">
	<path class="st0" d="M706.1,274.2c0-1.4,1.2-2.6,2.6-2.6c1.4,0,2.6,1.2,2.6,2.6s-1.2,2.6-2.6,2.6
		C707.2,276.8,706.1,275.7,706.1,274.2L706.1,274.2z"/>
</g>
<g id="LINE_226_">
	<line class="st0" x1="770.6" y1="394" x2="802.8" y2="394"/>
</g>
<g id="ARC_91_">
	<path class="st0" d="M802.8,394c13.8,0,25-11.2,25-25s-11.2-25-25-25"/>
</g>
<g id="CIRCLE_35_">
	<path class="st0" d="M756.7,367.4c0-7.2,5.8-13,13-13c7.2,0,13,5.8,13,13c0,7.2-5.8,13-13,13C762.5,380.4,756.7,374.6,756.7,367.4
		L756.7,367.4z"/>
</g>
<g id="LINE_227_">
	<line class="st0" x1="800.1" y1="354.5" x2="800.1" y2="364.5"/>
</g>
<g id="LINE_228_">
	<line class="st0" x1="794.4" y1="364.5" x2="794.4" y2="354.5"/>
</g>
<g id="LINE_229_">
	<line class="st0" x1="800.1" y1="374.5" x2="800.1" y2="384.5"/>
</g>
<g id="LINE_230_">
	<line class="st0" x1="800.1" y1="384.5" x2="794.4" y2="384.5"/>
</g>
<g id="LINE_231_">
	<line class="st0" x1="794.4" y1="384.5" x2="794.4" y2="374.5"/>
</g>
<g id="LINE_232_">
	<line class="st0" x1="800.1" y1="354.5" x2="794.4" y2="354.5"/>
</g>
<g id="LINE_233_">
	<line class="st0" x1="800.1" y1="374.5" x2="794.4" y2="374.5"/>
</g>
<g id="LINE_234_">
	<line class="st0" x1="699.4" y1="312.3" x2="707.6" y2="318.1"/>
</g>
<g id="LINE_235_">
	<line class="st0" x1="704.4" y1="322.7" x2="696.2" y2="317"/>
</g>
<g id="LINE_236_">
	<line class="st0" x1="715.8" y1="323.8" x2="724" y2="329.6"/>
</g>
<g id="LINE_237_">
	<line class="st0" x1="724" y1="329.6" x2="720.8" y2="334.2"/>
</g>
<g id="LINE_238_">
	<line class="st0" x1="720.8" y1="334.2" x2="712.6" y2="328.5"/>
</g>
<g id="LINE_239_">
	<line class="st0" x1="699.4" y1="312.3" x2="696.2" y2="317"/>
</g>
<g id="LINE_240_">
	<line class="st0" x1="715.8" y1="323.8" x2="712.6" y2="328.5"/>
</g>
<g id="LINE_241_">
	<line class="st0" x1="626.1" y1="423.3" x2="588.1" y2="423.3"/>
</g>
<g id="LINE_242_">
	<line class="st0" x1="587.1" y1="424.3" x2="587.1" y2="429.8"/>
</g>
<g id="LINE_243_">
	<line class="st0" x1="587.1" y1="459.8" x2="587.1" y2="465.3"/>
</g>
<g id="ARC_92_">
	<path class="st0" d="M587.1,465.3c0,0.6,0.4,1,1,1"/>
</g>
<g id="LINE_244_">
	<line class="st0" x1="627.1" y1="465.3" x2="627.1" y2="459.8"/>
</g>
<g id="ARC_93_">
	<path class="st0" d="M626.1,466.3c0.6,0,1-0.4,1-1"/>
</g>
<g id="LINE_245_">
	<line class="st0" x1="627.1" y1="449.8" x2="627.1" y2="439.8"/>
</g>
<g id="LINE_247_">
	<line class="st0" x1="541.1" y1="380.3" x2="541.1" y2="377.3"/>
</g>
<g id="ARC_95_">
	<path class="st0" d="M551.7,375.3c0,0.6-0.4,1-1,1"/>
</g>
<g id="LINE_246_">
	<line class="st0" x1="551.7" y1="374.8" x2="551.7" y2="375.3"/>
</g>
<g id="LINE_10_">
	<line class="st0" x1="550.7" y1="376.3" x2="542.1" y2="376.3"/>
</g>
<g id="ARC_94_">
	<path class="st0" d="M551.7,374.8c0-0.6,0.4-1,1-1"/>
</g>
<g id="ARC_2_">
	<path class="st0" d="M541.1,377.3c0-0.6,0.4-1,1-1"/>
</g>
<g id="CIRCLE_37_">
	<path class="st0" d="M740.5,459c-0.4,0-0.8-0.4-0.8-0.8c0-0.4,0.4-0.8,0.8-0.8s0.8,0.4,0.8,0.8C741.3,458.6,740.9,459,740.5,459
		L740.5,459z"/>
</g>
<g id="CIRCLE_36_">
	<path class="st0" d="M734,459c-0.4,0-0.8-0.4-0.8-0.8c0-0.4,0.4-0.8,0.8-0.8s0.8,0.4,0.8,0.8C734.8,458.6,734.4,459,734,459
		L734,459z"/>
</g>
</svg>
